<?xml version="1.0" standalone="no"?>
<!DOCTYPE svg PUBLIC "-//W3C//DTD SVG 20010904//EN"
 "http://www.w3.org/TR/2001/REC-SVG-20010904/DTD/svg10.dtd">
<svg version="1.0" xmlns="http://www.w3.org/2000/svg"
 width="260.000000pt" height="260.000000pt" viewBox="0 0 260.000000 260.000000"
 preserveAspectRatio="xMidYMid meet">
<metadata>
Created by potrace 1.11, written by Peter Selinger 2001-2013
</metadata>
<g transform="translate(0.000000,260.000000) scale(0.100000,-0.100000)"
fill="#000000" stroke="none">
<path d="M130 1300 l0 -660 193 0 193 0 1 199 c0 170 3 202 17 216 8 9 22 25
29 36 16 22 42 17 52 -9 3 -9 68 -112 143 -230 l137 -212 656 0 c361 1 660 4
663 7 4 4 15 8 25 10 42 6 112 44 148 80 70 69 91 138 89 281 -1 88 -5 115
-24 153 -36 74 -101 128 -170 144 -17 3 -32 11 -32 17 0 6 3 9 6 5 14 -13 124
60 124 82 0 6 4 11 10 11 5 0 18 28 28 61 22 72 23 210 2 277 -17 54 -81 128
-129 148 -96 42 -110 43 -767 44 -349 0 -634 -3 -634 -8 0 -4 -13 -23 -29 -42
-29 -34 -119 -146 -164 -203 -12 -16 -29 -37 -38 -47 -8 -10 -42 -53 -74 -94
-33 -41 -61 -73 -64 -71 -2 3 -5 107 -5 232 l-1 228 -192 3 -193 2 0 -660z
m1155 21 c0 -324 -3 -593 -7 -597 -5 -4 -8 -1 -8 7 0 9 -9 25 -20 37 -11 12
-20 24 -20 27 0 3 -39 65 -87 138 -49 74 -92 141 -98 150 -57 92 -131 203
-137 205 -4 2 -8 8 -8 13 0 5 -12 27 -26 49 -28 42 -28 42 14 90 7 8 20 25 30
36 28 35 93 113 157 190 76 89 124 148 166 201 19 23 36 42 39 42 3 1 5 -264
5 -588z m697 351 c35 -14 50 -44 53 -106 3 -61 -23 -121 -57 -130 -13 -3 -88
-6 -168 -6 l-146 0 1 120 c0 83 4 123 12 128 19 12 274 6 305 -6z m60 -532
c28 -29 33 -49 28 -130 -5 -84 -33 -95 -231 -94 -85 1 -159 2 -164 3 -7 1 -10
47 -9 124 1 67 2 123 3 125 0 1 78 2 173 2 l171 -2 29 -28z"/>
</g>
</svg>
